<svg width="25" height="20" viewBox="0 0 25 20" fill="none" xmlns="http://www.w3.org/2000/svg">
<g clip-path="url(#clip0_17_106)">
<path d="M24.1911 9.6C24.1911 4.29806 18.8357 0 12.2294 0C5.62305 0 0.267578 4.29806 0.267578 9.6C0.267578 14.3916 4.64181 18.3632 10.3603 19.0834V12.375H7.32316V9.6H10.3603V7.485C10.3603 5.079 12.1462 3.75 14.8785 3.75C16.1868 3.75 17.5561 3.9375 17.5561 3.9375V6.3H16.0478C14.5619 6.3 14.0984 7.04006 14.0984 7.8V9.6H17.4159L16.8856 12.375H14.0984V19.0834C19.8169 18.3632 24.1911 14.3916 24.1911 9.6Z" fill="#1877F2"/>
<path d="M16.8857 12.375L17.416 9.6H14.0985V7.8C14.0985 7.04081 14.562 6.3 16.0479 6.3H17.5562V3.9375C17.5562 3.9375 16.1873 3.75 14.8786 3.75C12.1463 3.75 10.3604 5.079 10.3604 7.485V9.6H7.32324V12.375H10.3604V19.0834C11.5989 19.2389 12.86 19.2389 14.0985 19.0834V12.375H16.8857Z" fill="white"/>
</g>
<defs>
<clipPath id="clip0_17_106">
<rect width="23.9236" height="19.2" fill="white" transform="translate(0.267578)"/>
</clipPath>
</defs>
</svg>
